<svg xmlns="http://www.w3.org/2000/svg" width="952" height="192" fill="none">
	<g clip-path="url(#a)">
		<path fill="#2D4552" d="M84.38 108.352c-9.556 2.712-15.826 7.467-19.956 12.218 3.956-3.461 9.255-6.639 16.402-8.665 7.311-2.072 13.548-2.057 18.702-1.062v-4.03c-4.397-.402-9.437-.082-15.148 1.539ZM63.987 74.475l-35.49 9.35s.646.914 1.844 2.133l30.092-7.93s-.427 5.495-4.13 10.41c7.005-5.299 7.684-13.963 7.684-13.963Zm29.709 83.41c-49.946 13.452-76.37-44.43-84.37-74.472-3.696-13.868-5.31-24.37-5.74-31.148-.04-.613-.033-1.228.025-1.84-2.59.155-3.831 1.502-3.579 5.395.43 6.773 2.044 17.275 5.74 31.147 7.997 30.038 34.424 87.92 84.37 74.468 10.871-2.929 19.038-8.263 25.17-15.073-5.652 5.104-12.724 9.123-21.616 11.523ZM103.08 39.05v3.555h19.59c-.401-1.259-.806-2.393-1.208-3.555H103.08Z"/>
		<path fill="#2D4552" d="M127.05 68.325c8.81 2.503 13.47 8.68 15.933 14.146l9.824 2.79s-1.34-19.132-18.645-24.047c-16.189-4.6-26.151 8.995-27.363 10.754 4.71-3.355 11.586-6.102 20.251-3.643Zm78.197 14.234c-16.204-4.62-26.162 9.003-27.356 10.737 4.713-3.351 11.586-6.099 20.247-3.629 8.797 2.506 13.452 8.676 15.923 14.146l9.837 2.8s-1.361-19.135-18.651-24.054Zm-9.76 50.443-81.718-22.845s.885 4.485 4.279 10.293l68.803 19.234c5.664-3.277 8.636-6.682 8.636-6.682Zm-56.655 49.174C74.127 164.828 81.949 82.386 92.419 43.32c4.311-16.1 8.743-28.066 12.419-36.088-2.193-.451-4.01.704-5.804 4.354C95.13 19.5 90.14 32.387 85.312 50.427c-10.467 39.066-18.29 121.506 46.412 138.854 30.497 8.17 54.256-4.247 71.966-23.749-16.81 15.226-38.274 23.763-64.858 16.644Z"/>
		<path fill="#E2574C" d="M103.081 138.565v-16.637l-46.223 13.108s3.415-19.846 27.522-26.684c7.311-2.072 13.549-2.058 18.701-1.063V39.05h23.145c-2.52-7.787-4.958-13.782-7.006-17.948-3.387-6.895-6.859-2.324-14.741 4.269-5.552 4.638-19.583 14.533-40.698 20.222-21.114 5.694-38.185 4.184-45.307 2.95-10.097-1.742-15.378-3.96-14.884 3.721.43 6.774 2.043 17.277 5.74 31.148 7.996 30.039 34.424 87.92 84.37 74.468 13.046-3.515 22.254-10.464 28.637-19.32h-19.256v.005Zm-74.588-54.74 35.494-9.35s-1.034 13.654-14.34 17.162c-13.31 3.504-21.154-7.812-21.154-7.812Z"/>
		<path fill="#2EAD33" d="M236.664 39.84c-9.226 1.617-31.361 3.632-58.716-3.7-27.363-7.328-45.517-20.144-52.71-26.168-10.197-8.54-14.682-14.476-19.096-5.498-3.902 7.918-8.893 20.805-13.723 38.846-10.466 39.066-18.289 121.505 46.413 138.853 64.687 17.333 99.126-57.978 109.593-97.047 4.83-18.037 6.948-31.695 7.53-40.502.665-9.976-6.188-7.08-19.291-4.784ZM106.668 72.161s10.196-15.859 27.49-10.943c17.305 4.915 18.645 24.046 18.645 24.046l-46.135-13.103Zm42.215 71.163c-30.419-8.91-35.11-33.167-35.11-33.167l81.714 22.846c0-.004-16.494 19.12-46.604 10.32v.001Zm28.89-49.85s10.183-15.847 27.474-10.918c17.29 4.923 18.651 24.054 18.651 24.054l-46.124-13.136h-.001Z"/>
		<path fill="#D65348" d="m86.928 126.51-30.07 8.522s3.266-18.609 25.418-25.983L65.25 45.147l-1.471.447c-21.115 5.694-38.185 4.184-45.307 2.95-10.097-1.741-15.38-3.96-14.885 3.722.43 6.774 2.044 17.276 5.74 31.147 7.997 30.039 34.425 87.92 84.37 74.468l1.47-.462-8.238-30.91-.001.001ZM28.493 83.825l35.494-9.351s-1.034 13.654-14.34 17.162c-13.31 3.504-21.154-7.811-21.154-7.811Z"/>
		<path fill="#1D8D22" d="m150.255 143.658-1.376-.335c-30.419-8.91-35.11-33.166-35.11-33.166l42.137 11.778 22.308-85.724-.27-.07c-27.362-7.329-45.516-20.145-52.71-26.17-10.196-8.54-14.682-14.475-19.096-5.497-3.898 7.918-8.889 20.805-13.719 38.846-10.466 39.066-18.289 121.505 46.413 138.852l1.326.3 10.097-38.814ZM106.668 72.16s10.196-15.859 27.49-10.943c17.305 4.915 18.645 24.046 18.645 24.046L106.668 72.16Z"/>
		<path fill="#C04B41" d="m88.46 126.072-8.064 2.289c1.906 10.74 5.264 21.047 10.534 30.152.918-.202 1.828-.376 2.762-.632 2.449-.66 4.72-1.479 6.906-2.371-5.89-8.74-9.786-18.804-12.138-29.438Zm-3.148-75.644c-4.144 15.467-7.852 37.73-6.831 60.06 1.826-.793 3.756-1.532 5.9-2.14l1.492-.334c-1.82-23.852 2.114-48.157 6.546-64.694a323.067 323.067 0 0 1 3.373-11.704 104.714 104.714 0 0 1-5.974 3.547 306.477 306.477 0 0 0-4.506 15.265Z"/>
	</g>
		<path fill="#111" d="M308.281 146V50.727h37.588c7.226 0 13.382 1.38 18.468 4.14 5.086 2.73 8.963 6.529 11.63 11.398 2.698 4.838 4.047 10.42 4.047 16.747s-1.364 11.91-4.094 16.747c-2.729 4.838-6.683 8.606-11.862 11.305-5.148 2.698-11.382 4.047-18.701 4.047h-23.958V98.968H342.1c3.877 0 7.072-.666 9.584-2 2.543-1.365 4.434-3.24 5.675-5.629 1.272-2.419 1.907-5.195 1.907-8.327 0-3.163-.635-5.924-1.907-8.28-1.241-2.388-3.132-4.234-5.675-5.536-2.543-1.334-5.769-2-9.677-2h-13.583V146h-20.143Zm100.332-95.273V146h-19.817V50.727h19.817Zm32.321 96.622c-4.559 0-8.622-.791-12.188-2.372-3.567-1.613-6.389-3.986-8.467-7.118-2.047-3.163-3.07-7.102-3.07-11.816 0-3.97.729-7.304 2.186-10.002 1.458-2.698 3.443-4.869 5.955-6.513 2.512-1.643 5.365-2.884 8.559-3.721 3.226-.838 6.606-1.427 10.142-1.768 4.155-.434 7.505-.837 10.048-1.209 2.543-.404 4.388-.993 5.536-1.768 1.147-.776 1.721-1.923 1.721-3.443v-.279c0-2.946-.93-5.225-2.791-6.838-1.83-1.613-4.435-2.42-7.815-2.42-3.567 0-6.405.792-8.514 2.373-2.108 1.55-3.504 3.505-4.186 5.862l-18.329-1.489c.93-4.342 2.76-8.094 5.489-11.258 2.729-3.194 6.249-5.644 10.56-7.35 4.342-1.737 9.366-2.605 15.073-2.605 3.969 0 7.768.465 11.397 1.396 3.66.93 6.9 2.372 9.723 4.326 2.853 1.954 5.101 4.466 6.745 7.536 1.644 3.04 2.466 6.684 2.466 10.932V146H462.38v-9.909h-.559a20.144 20.144 0 0 1-4.605 5.908c-1.923 1.675-4.233 2.993-6.932 3.954-2.698.931-5.815 1.396-9.35 1.396Zm5.675-13.677c2.916 0 5.49-.574 7.723-1.721 2.233-1.179 3.985-2.76 5.256-4.745 1.272-1.985 1.908-4.233 1.908-6.745v-7.583c-.621.403-1.473.775-2.559 1.116-1.054.31-2.248.605-3.582.884-1.334.248-2.667.481-4.001.698-1.333.186-2.543.357-3.628.512-2.326.341-4.358.884-6.094 1.628-1.737.744-3.086 1.752-4.048 3.024-.961 1.24-1.442 2.791-1.442 4.652 0 2.698.977 4.76 2.931 6.187 1.985 1.395 4.497 2.093 7.536 2.093Zm55.686 39.123c-2.513 0-4.87-.201-7.071-.604-2.171-.372-3.97-.853-5.397-1.442l4.466-14.794c2.326.714 4.419 1.101 6.28 1.163 1.892.062 3.52-.372 4.885-1.302 1.395-.931 2.527-2.512 3.396-4.745l1.163-3.024-25.633-73.501h20.841l14.794 52.474h.744l14.933-52.474h20.98l-27.772 79.176c-1.334 3.846-3.148 7.195-5.443 10.049-2.264 2.884-5.133 5.101-8.606 6.652-3.474 1.582-7.66 2.372-12.56 2.372ZM576.983 146l-19.445-71.454h20.05l11.072 48.008h.651l11.537-48.008h19.678l11.723 47.729h.605l10.885-47.73h20.004L644.344 146h-20.981l-12.281-44.938h-.884L597.917 146h-20.934Zm93.401 0V74.546h19.213v12.467h.744c1.303-4.435 3.489-7.785 6.56-10.049 3.07-2.294 6.606-3.442 10.606-3.442.993 0 2.063.062 3.21.186 1.148.124 2.156.295 3.024.512v17.584c-.93-.279-2.218-.527-3.861-.744-1.644-.217-3.148-.326-4.513-.326-2.915 0-5.52.636-7.815 1.908a14.039 14.039 0 0 0-5.396 5.21c-1.303 2.233-1.954 4.807-1.954 7.722V146h-19.818Zm49.673 0V74.546h19.817V146h-19.817Zm9.955-80.665c-2.946 0-5.474-.977-7.583-2.931-2.077-1.985-3.116-4.358-3.116-7.118 0-2.729 1.039-5.07 3.116-7.024 2.109-1.985 4.637-2.978 7.583-2.978 2.946 0 5.458.993 7.536 2.978 2.109 1.954 3.164 4.295 3.164 7.024 0 2.76-1.055 5.133-3.164 7.118-2.078 1.954-4.59 2.93-7.536 2.93Zm53.999 108.949c-6.42 0-11.925-.884-16.515-2.652-4.558-1.736-8.187-4.109-10.885-7.117-2.698-3.008-4.451-6.389-5.257-10.141l18.329-2.466c.558 1.427 1.442 2.76 2.652 4.001 1.209 1.24 2.806 2.233 4.791 2.977 2.016.775 4.466 1.163 7.35 1.163 4.311 0 7.862-1.054 10.653-3.163 2.822-2.078 4.234-5.567 4.234-10.467v-13.072h-.838c-.868 1.984-2.171 3.861-3.907 5.628-1.737 1.768-3.97 3.21-6.699 4.327-2.729 1.116-5.986 1.675-9.769 1.675-5.366 0-10.25-1.241-14.654-3.722-4.373-2.512-7.862-6.342-10.467-11.49-2.574-5.18-3.861-11.723-3.861-19.632 0-8.094 1.318-14.855 3.954-20.282 2.636-5.428 6.14-9.49 10.513-12.189 4.404-2.698 9.227-4.047 14.468-4.047 4.001 0 7.35.682 10.048 2.047 2.698 1.334 4.869 3.008 6.513 5.024 1.675 1.985 2.962 3.939 3.861 5.862h.745V74.546h19.677v72.152c0 6.078-1.488 11.165-4.465 15.258-2.978 4.094-7.102 7.164-12.375 9.211-5.241 2.078-11.273 3.117-18.096 3.117Zm.419-44.194c3.194 0 5.892-.791 8.094-2.372 2.233-1.613 3.939-3.908 5.117-6.885 1.21-3.009 1.815-6.606 1.815-10.793 0-4.187-.59-7.815-1.768-10.886-1.179-3.1-2.884-5.504-5.117-7.21-2.233-1.706-4.947-2.559-8.141-2.559-3.257 0-6.001.884-8.234 2.652-2.233 1.737-3.923 4.156-5.071 7.257-1.147 3.101-1.721 6.683-1.721 10.746 0 4.125.574 7.691 1.721 10.7 1.179 2.977 2.869 5.287 5.071 6.931 2.233 1.613 4.977 2.419 8.234 2.419Zm66.175-25.4V146h-19.817V50.727h19.259v36.425h.837c1.613-4.218 4.218-7.52 7.816-9.908 3.597-2.42 8.11-3.629 13.537-3.629 4.962 0 9.288 1.086 12.979 3.256 3.722 2.14 6.606 5.226 8.653 9.258 2.078 4 3.101 8.792 3.07 14.375V146h-19.817v-41.961c.031-4.404-1.086-7.83-3.35-10.28-2.233-2.45-5.365-3.676-9.397-3.676-2.698 0-5.086.574-7.164 1.721-2.047 1.148-3.66 2.822-4.838 5.025-1.148 2.17-1.737 4.791-1.768 7.861Zm96.007-30.144v14.886h-43.031V74.546h43.031Zm-33.262-17.12h19.817v66.617c0 1.829.279 3.256.838 4.279.558.993 1.333 1.691 2.326 2.094 1.023.403 2.202.605 3.535.605.931 0 1.861-.078 2.791-.233.931-.186 1.644-.326 2.14-.419l3.117 14.747c-.992.31-2.388.667-4.187 1.07-1.798.434-3.985.698-6.559.791-4.776.186-8.963-.45-12.56-1.907-3.567-1.458-6.343-3.722-8.327-6.792-1.985-3.071-2.962-6.947-2.931-11.63V57.426Z"/>
	<defs>
		<clipPath id="a"><path fill="#fff" d="M0 0h256v192H0z"/></clipPath>
	</defs>
</svg>
