<?xml version="1.0" encoding="UTF-8"?>
<svg width="368px" height="213px" viewBox="0 0 368 213" version="1.1" xmlns="http://www.w3.org/2000/svg" xmlns:xlink="http://www.w3.org/1999/xlink">
    <!-- Generator: Sketch 52.5 (67469) - http://www.bohemiancoding.com/sketch -->
    <title>Group 2</title>
    <desc>Created with Sketch.</desc>
    <g id="Page-1" stroke="none" stroke-width="1" fill="none" fill-rule="evenodd">
        <g id="Group-2" transform="translate(-1.000000, -25.000000)" fill="#121212">
            <path d="M98.92,28.74 C110.68,28.74 115.24,33.24 115.24,40.68 C115.24,45.6 112.06,49.26 107.5,50.82 L107.5,51.12 L117.52,69.78 L119.56,70.98 L119.56,72 L105.46,72 L95.86,52.56 L93.94,52.56 L93.94,70.2 L97.6,70.98 L97.6,72 L77.14,72 L77.14,70.98 L81.28,70.08 L81.28,30.78 L77.2,29.76 L77.2,28.74 L98.92,28.74 Z M95.86,51.24 C100.6,51.24 102.7,48.42 102.7,40.62 C102.7,32.46 100.6,29.88 95.98,29.88 L93.94,29.88 L93.94,51.24 L95.86,51.24 Z M149.86,54.42 L130.18,54.42 C130.6,62.52 133.18,67.5 141.58,67.5 C144.34,67.5 146.68,67.14 148.9,66.18 L148.9,67.14 C147.04,69.96 142.48,72.9 135.94,72.9 C124.84,72.9 119.14,66.18 119.14,55.44 C119.14,44.94 125.38,38.4 135.46,38.4 C145.6,38.4 149.86,43.8 149.86,53.58 L149.86,54.42 Z M135.22,39.54 C132.1,39.54 130.18,43.74 130.18,53.22 L139.48,52.8 C139.48,42.48 138.1,39.54 135.22,39.54 Z M184.54,40.14 L180.76,42.6 L171.04,72 L164.44,72 L152.86,41.64 L150.1,40.14 L150.1,39.12 L168.64,39.12 L168.64,40.14 L164.86,41.58 L172.48,63 L172.78,63 L179.62,42.6 L175,40.14 L175,39.12 L184.54,39.12 L184.54,40.14 Z M194.5,25.08 C197.62,25.08 200.32,27.54 200.32,30.72 C200.32,33.9 197.62,36.3 194.5,36.3 C191.26,36.3 188.74,33.9 188.74,30.72 C188.74,27.54 191.26,25.08 194.5,25.08 Z M185.62,40.44 L198.76,38.52 L200.26,38.64 L200.26,70.02 L203.62,70.98 L203.62,72 L185.86,72 L185.86,70.98 L189.28,70.02 L189.28,42.9 L185.62,41.46 L185.62,40.44 Z M221.62,50.46 C227.8,53.34 231.04,55.92 231.04,61.92 C231.04,68.7 226.3,72.78 217.54,72.78 C213.58,72.78 209.5,72.3 206.32,71.1 L205.96,61.38 L206.98,61.38 L215.56,71.4 C216.16,71.58 216.82,71.7 217.36,71.7 C221.02,71.7 222.7,69.72 222.7,66.66 C222.7,63.96 221.26,62.94 217.48,61.14 L215.5,60.24 C209.5,57.42 206.02,54.48 206.02,48.96 C206.02,42.24 210.7,38.28 218.74,38.28 C222.04,38.28 225.64,38.58 228.4,39.36 L228.7,48.42 L227.68,48.42 L221.14,39.66 C220.42,39.42 219.7,39.3 219.04,39.3 C215.8,39.3 214.36,41.16 214.36,43.86 C214.36,46.8 215.74,47.76 219.76,49.62 L221.62,50.46 Z M241.96,25.08 C245.08,25.08 247.78,27.54 247.78,30.72 C247.78,33.9 245.08,36.3 241.96,36.3 C238.72,36.3 236.2,33.9 236.2,30.72 C236.2,27.54 238.72,25.08 241.96,25.08 Z M233.08,40.44 L246.22,38.52 L247.72,38.64 L247.72,70.02 L251.08,70.98 L251.08,72 L233.32,72 L233.32,70.98 L236.74,70.02 L236.74,42.9 L233.08,41.46 L233.08,40.44 Z M256.72,41.4 L252.04,41.4 L252.04,40.32 L256.72,39.12 L256.72,32.64 L267.64,30.9 L267.64,39.12 L274.9,39.12 L274.9,41.4 L267.64,41.4 L267.64,63.24 C267.64,66.6 268.66,67.98 272.26,67.98 C273.4,67.98 274.54,67.86 275.26,67.68 L275.26,68.7 C273.34,70.74 270.04,72.66 266.14,72.66 C259.9,72.66 256.72,69.78 256.72,62.7 L256.72,41.4 Z M286.12,25.08 C289.24,25.08 291.94,27.54 291.94,30.72 C291.94,33.9 289.24,36.3 286.12,36.3 C282.88,36.3 280.36,33.9 280.36,30.72 C280.36,27.54 282.88,25.08 286.12,25.08 Z M277.24,40.44 L290.38,38.52 L291.88,38.64 L291.88,70.02 L295.24,70.98 L295.24,72 L277.48,72 L277.48,70.98 L280.9,70.02 L280.9,42.9 L277.24,41.46 L277.24,40.44 Z M297.04,70.98 L300.46,70.02 L300.46,42.9 L296.86,41.46 L296.86,40.44 L309.94,38.52 L311.26,38.64 L311.26,42.84 L311.62,42.84 C314.44,39.96 318.64,38.34 322.78,38.34 C328.48,38.34 331,41.04 331,47.04 L331,70.02 L334.42,70.98 L334.42,72 L317.02,72 L317.02,70.98 L320.08,70.2 L320.08,47.64 C320.08,44.4 318.64,42.96 315.82,42.96 C314.08,42.96 312.7,43.38 311.44,44.04 L311.44,70.2 L314.44,70.98 L314.44,72 L297.04,72 L297.04,70.98 Z M349.96,85.44 C339.4,85.44 334.06,83.76 334.06,79.44 C334.06,76.92 337.24,75.42 341.92,74.64 L341.92,74.34 C338.56,73.44 336.28,71.52 336.28,68.34 C336.28,64.8 339.04,62.04 343.42,60.72 L343.42,60.42 C339.04,58.62 336.1,54.72 336.1,49.98 C336.1,42.54 341.8,38.34 350.26,38.34 C352.72,38.34 354.94,38.88 356.74,39.48 L367.3,38.16 L367.3,43.56 L359.68,41.16 L359.68,41.52 C362.86,43.8 364.42,46.74 364.42,50.28 C364.42,57.66 358.6,61.56 350.26,61.56 C348.16,61.56 346.36,61.2 344.74,60.9 C344.14,61.5 343.72,62.22 343.72,63.18 C343.72,64.56 344.5,65.34 346.42,65.34 L357.28,65.34 C364.6,65.34 368.14,67.44 368.14,73.38 C368.14,80.4 362.14,85.44 349.96,85.44 Z M354.16,50.16 C354.16,41.88 352.78,39.48 350.26,39.48 C347.8,39.48 346.42,41.88 346.42,50.22 C346.42,58.02 347.8,60.42 350.26,60.42 C352.72,60.42 354.16,57.9 354.16,50.16 Z M350.14,84.3 C356.86,84.3 360.16,81.72 360.16,77.88 C360.16,75.78 359.2,74.76 356.32,74.76 L343.3,74.76 C342.76,75.78 342.4,76.86 342.4,78.48 C342.4,82.02 344.32,84.3 350.14,84.3 Z" id="Revisiting"></path>
            <path d="M22.92,137.74 C34.68,137.74 39.24,142.24 39.24,149.68 C39.24,154.6 36.06,158.26 31.5,159.82 L31.5,160.12 L41.52,178.78 L43.56,179.98 L43.56,181 L29.46,181 L19.86,161.56 L17.94,161.56 L17.94,179.2 L21.6,179.98 L21.6,181 L1.14,181 L1.14,179.98 L5.28,179.08 L5.28,139.78 L1.2,138.76 L1.2,137.74 L22.92,137.74 Z M19.86,160.24 C24.6,160.24 26.7,157.42 26.7,149.62 C26.7,141.46 24.6,138.88 19.98,138.88 L17.94,138.88 L17.94,160.24 L19.86,160.24 Z M73.86,163.42 L54.18,163.42 C54.6,171.52 57.18,176.5 65.58,176.5 C68.34,176.5 70.68,176.14 72.9,175.18 L72.9,176.14 C71.04,178.96 66.48,181.9 59.94,181.9 C48.84,181.9 43.14,175.18 43.14,164.44 C43.14,153.94 49.38,147.4 59.46,147.4 C69.6,147.4 73.86,152.8 73.86,162.58 L73.86,163.42 Z M59.22,148.54 C56.1,148.54 54.18,152.74 54.18,162.22 L63.48,161.8 C63.48,151.48 62.1,148.54 59.22,148.54 Z M76.32,179.98 L79.74,179.02 L79.74,151.9 L76.14,150.46 L76.14,149.44 L89.22,147.52 L90.54,147.64 L90.54,151.84 L90.9,151.84 C93.72,148.96 97.92,147.34 102.06,147.34 C107.76,147.34 110.28,150.04 110.28,156.04 L110.28,179.02 L113.7,179.98 L113.7,181 L96.3,181 L96.3,179.98 L99.36,179.2 L99.36,156.64 C99.36,153.4 97.92,151.96 95.1,151.96 C93.36,151.96 91.98,152.38 90.72,153.04 L90.72,179.2 L93.72,179.98 L93.72,181 L76.32,181 L76.32,179.98 Z M130.74,147.46 C133.38,147.46 135.36,147.94 136.38,148.48 L136.38,137.8 L132.78,136.54 L132.78,135.52 L146.04,133.6 L147.3,133.78 L147.3,178.06 L150.96,179.2 L150.96,180.22 L137.58,181.72 L136.56,181.6 L136.56,177.88 L136.26,177.88 C134.34,179.98 131.88,181.84 127.86,181.84 C120.72,181.84 115.5,176.38 115.5,165.22 C115.5,153.46 121.56,147.46 130.74,147.46 Z M133.32,177.22 C134.64,177.22 135.72,176.92 136.38,176.5 L136.38,149.92 C135.54,149.5 134.52,149.14 132.84,149.14 C129.3,149.14 127.02,153.28 127.02,163.9 C127.02,173.44 129.12,177.22 133.32,177.22 Z M183.18,163.42 L163.5,163.42 C163.92,171.52 166.5,176.5 174.9,176.5 C177.66,176.5 180,176.14 182.22,175.18 L182.22,176.14 C180.36,178.96 175.8,181.9 169.26,181.9 C158.16,181.9 152.46,175.18 152.46,164.44 C152.46,153.94 158.7,147.4 168.78,147.4 C178.92,147.4 183.18,152.8 183.18,162.58 L183.18,163.42 Z M168.54,148.54 C165.42,148.54 163.5,152.74 163.5,162.22 L172.8,161.8 C172.8,151.48 171.42,148.54 168.54,148.54 Z M185.46,149.44 L198.72,147.52 L199.8,147.64 L199.8,157 L200.1,157 C201.78,149.86 204.54,147.16 208.26,147.16 C208.86,147.16 209.52,147.22 209.88,147.4 L209.88,157.3 C209.28,157.12 208.2,157.06 207.18,157.06 C204.18,157.06 201.96,157.36 200.04,158.14 L200.04,179.08 L204.48,179.98 L204.48,181 L185.64,181 L185.64,179.98 L189.06,179.08 L189.06,151.9 L185.46,150.46 L185.46,149.44 Z M220.08,134.08 C223.2,134.08 225.9,136.54 225.9,139.72 C225.9,142.9 223.2,145.3 220.08,145.3 C216.84,145.3 214.32,142.9 214.32,139.72 C214.32,136.54 216.84,134.08 220.08,134.08 Z M211.2,149.44 L224.34,147.52 L225.84,147.64 L225.84,179.02 L229.2,179.98 L229.2,181 L211.44,181 L211.44,179.98 L214.86,179.02 L214.86,151.9 L211.2,150.46 L211.2,149.44 Z M231,179.98 L234.42,179.02 L234.42,151.9 L230.82,150.46 L230.82,149.44 L243.9,147.52 L245.22,147.64 L245.22,151.84 L245.58,151.84 C248.4,148.96 252.6,147.34 256.74,147.34 C262.44,147.34 264.96,150.04 264.96,156.04 L264.96,179.02 L268.38,179.98 L268.38,181 L250.98,181 L250.98,179.98 L254.04,179.2 L254.04,156.64 C254.04,153.4 252.6,151.96 249.78,151.96 C248.04,151.96 246.66,152.38 245.4,153.04 L245.4,179.2 L248.4,179.98 L248.4,181 L231,181 L231,179.98 Z M283.92,194.44 C273.36,194.44 268.02,192.76 268.02,188.44 C268.02,185.92 271.2,184.42 275.88,183.64 L275.88,183.34 C272.52,182.44 270.24,180.52 270.24,177.34 C270.24,173.8 273,171.04 277.38,169.72 L277.38,169.42 C273,167.62 270.06,163.72 270.06,158.98 C270.06,151.54 275.76,147.34 284.22,147.34 C286.68,147.34 288.9,147.88 290.7,148.48 L301.26,147.16 L301.26,152.56 L293.64,150.16 L293.64,150.52 C296.82,152.8 298.38,155.74 298.38,159.28 C298.38,166.66 292.56,170.56 284.22,170.56 C282.12,170.56 280.32,170.2 278.7,169.9 C278.1,170.5 277.68,171.22 277.68,172.18 C277.68,173.56 278.46,174.34 280.38,174.34 L291.24,174.34 C298.56,174.34 302.1,176.44 302.1,182.38 C302.1,189.4 296.1,194.44 283.92,194.44 Z M288.12,159.16 C288.12,150.88 286.74,148.48 284.22,148.48 C281.76,148.48 280.38,150.88 280.38,159.22 C280.38,167.02 281.76,169.42 284.22,169.42 C286.68,169.42 288.12,166.9 288.12,159.16 Z M284.1,193.3 C290.82,193.3 294.12,190.72 294.12,186.88 C294.12,184.78 293.16,183.76 290.28,183.76 L277.26,183.76 C276.72,184.78 276.36,185.86 276.36,187.48 C276.36,191.02 278.28,193.3 284.1,193.3 Z" id="Rendering"></path>
            <path d="M185,237 L185,235.98 L189.44,235.08 L189.44,194.88 L186.02,194.88 L177.62,208.74 L176.6,208.74 L177.14,193.74 L214.34,193.74 L214.82,208.74 L213.8,208.74 L205.64,194.88 L202.1,194.88 L202.1,235.08 L206.54,235.98 L206.54,237 L185,237 Z M225.8,190.08 C228.92,190.08 231.62,192.54 231.62,195.72 C231.62,198.9 228.92,201.3 225.8,201.3 C222.56,201.3 220.04,198.9 220.04,195.72 C220.04,192.54 222.56,190.08 225.8,190.08 Z M216.92,205.44 L230.06,203.52 L231.56,203.64 L231.56,235.02 L234.92,235.98 L234.92,237 L217.16,237 L217.16,235.98 L220.58,235.02 L220.58,207.9 L216.92,206.46 L216.92,205.44 Z M267.56,219.42 L247.88,219.42 C248.3,227.52 250.88,232.5 259.28,232.5 C262.04,232.5 264.38,232.14 266.6,231.18 L266.6,232.14 C264.74,234.96 260.18,237.9 253.64,237.9 C242.54,237.9 236.84,231.18 236.84,220.44 C236.84,209.94 243.08,203.4 253.16,203.4 C263.3,203.4 267.56,208.8 267.56,218.58 L267.56,219.42 Z M252.92,204.54 C249.8,204.54 247.88,208.74 247.88,218.22 L257.18,217.8 C257.18,207.48 255.8,204.54 252.92,204.54 Z M269.84,205.44 L283.1,203.52 L284.18,203.64 L284.18,213 L284.48,213 C286.16,205.86 288.92,203.16 292.64,203.16 C293.24,203.16 293.9,203.22 294.26,203.4 L294.26,213.3 C293.66,213.12 292.58,213.06 291.56,213.06 C288.56,213.06 286.34,213.36 284.42,214.14 L284.42,235.08 L288.86,235.98 L288.86,237 L270.02,237 L270.02,235.98 L273.44,235.08 L273.44,207.9 L269.84,206.46 L269.84,205.44 Z" id="Tier"></path>
            <path d="M146.1,97.4 L141.42,97.4 L141.42,96.32 L146.1,95.12 L146.1,88.64 L157.02,86.9 L157.02,95.12 L164.28,95.12 L164.28,97.4 L157.02,97.4 L157.02,119.24 C157.02,122.6 158.04,123.98 161.64,123.98 C162.78,123.98 163.92,123.86 164.64,123.68 L164.64,124.7 C162.72,126.74 159.42,128.66 155.52,128.66 C149.28,128.66 146.1,125.78 146.1,118.7 L146.1,97.4 Z M165.9,126.98 L169.32,126.02 L169.32,84.98 L165.72,83.54 L165.72,82.52 L178.74,80.6 L180.12,80.78 L180.12,98.84 L180.48,98.84 C183.3,95.96 187.5,94.34 191.64,94.34 C197.34,94.34 199.86,97.04 199.86,103.04 L199.86,126.02 L203.28,126.98 L203.28,128 L185.88,128 L185.88,126.98 L188.94,126.2 L188.94,103.64 C188.94,100.4 187.5,98.96 184.68,98.96 C182.94,98.96 181.56,99.38 180.3,100.04 L180.3,126.2 L183.3,126.98 L183.3,128 L165.9,128 L165.9,126.98 Z M235.62,110.42 L215.94,110.42 C216.36,118.52 218.94,123.5 227.34,123.5 C230.1,123.5 232.44,123.14 234.66,122.18 L234.66,123.14 C232.8,125.96 228.24,128.9 221.7,128.9 C210.6,128.9 204.9,122.18 204.9,111.44 C204.9,100.94 211.14,94.4 221.22,94.4 C231.36,94.4 235.62,99.8 235.62,109.58 L235.62,110.42 Z M220.98,95.54 C217.86,95.54 215.94,99.74 215.94,109.22 L225.24,108.8 C225.24,98.48 223.86,95.54 220.98,95.54 Z" id="the"></path>
        </g>
    </g>
</svg>