<svg width="26" height="26" viewBox="0 0 26 26" fill="none" xmlns="http://www.w3.org/2000/svg">
<path fill-rule="evenodd" clip-rule="evenodd" d="M19.826 9.82701L18.0583 11.5948C17.5347 12.1184 16.8368 12.3611 16.1513 12.3232L14.7679 13.7066C16.2631 14.2926 18.0286 13.9814 19.2368 12.7733L21.0045 11.0055C22.6318 9.37834 22.6318 6.74015 21.0045 5.11296C19.3773 3.48578 16.7392 3.48578 15.112 5.11296L13.3443 6.88073C12.1361 8.0889 11.8249 9.85441 12.4108 11.3496L13.7943 9.96614C13.7564 9.2808 13.9992 8.5828 14.5228 8.05925L16.2905 6.29148C17.2668 5.31516 18.8498 5.31516 19.826 6.29148C20.8023 7.26779 20.8023 8.8507 19.826 9.82701ZM15.7347 9.25331C16.0601 8.92786 16.5878 8.92786 16.9132 9.25331C17.2386 9.57874 17.2386 10.1064 16.9132 10.4318L10.4314 16.9136C10.1059 17.239 9.5783 17.2391 9.25287 16.9136C8.92743 16.5882 8.92743 16.0605 9.25287 15.7351L15.7347 9.25331ZM8.05827 14.5248L6.2905 16.2925C5.31419 17.2689 5.31419 18.8518 6.2905 19.8281C7.26681 20.8044 8.84972 20.8044 9.82603 19.8281L11.5938 18.0604C12.1173 17.5368 12.3602 16.8388 12.3222 16.1534L13.7057 14.7699C14.2916 16.2652 13.9805 18.0307 12.7723 19.2389L11.0045 21.0066C9.37736 22.6338 6.73917 22.6338 5.11199 21.0066C3.48481 19.3794 3.48481 16.7413 5.11199 15.114L6.87976 13.3463C8.08792 12.1381 9.85343 11.827 11.3487 12.4129L9.96516 13.7964C9.27982 13.7584 8.58182 14.0013 8.05827 14.5248Z"/>
</svg>
