<svg viewBox="0 0 147 147">
<path d="M127.611 47.6159L113.469 61.7579C109.28 65.9466 103.697 67.8886 98.2134 67.5853L87.1461 78.6526C99.1074 83.3406 113.231 80.8513 122.897 71.1859L137.039 57.0439C150.057 44.0265 150.057 22.9209 137.039 9.90347C124.021 -3.11398 102.916 -3.11398 89.8987 9.90347L75.7567 24.0456C66.0914 33.7109 63.6021 47.835 68.2894 59.7966L79.3574 48.7289C79.0541 43.2461 80.9961 37.6621 85.1847 33.4737L99.3267 19.3316C107.137 11.5211 119.801 11.5211 127.611 19.3316C135.421 27.1421 135.421 39.8053 127.611 47.6159ZM94.8801 43.0262C97.4834 40.4227 101.705 40.4227 104.308 43.0262C106.911 45.6297 106.911 49.8508 104.308 52.4543L52.4537 104.309C49.8502 106.912 45.6291 106.913 43.0256 104.309C40.4221 101.705 40.4221 97.4839 43.0256 94.8806L94.8801 43.0262ZM33.4688 85.1979L19.3267 99.3399C11.5162 107.151 11.5162 119.814 19.3267 127.625C27.1371 135.435 39.8005 135.435 47.6109 127.625L61.7534 113.483C65.9414 109.294 67.8841 103.71 67.5801 98.2273L78.6481 87.1593C83.3354 99.1213 80.8467 113.245 71.1814 122.911L57.0391 137.053C44.0215 150.07 22.9161 150.07 9.89861 137.053C-3.11887 124.035 -3.11887 102.93 9.89861 89.9119L24.0407 75.7699C33.706 66.1046 47.8301 63.6159 59.7921 68.3033L48.7239 79.3713C43.2412 79.0673 37.6573 81.0099 33.4688 85.1979Z"/>
</svg>
