<svg viewBox="0 0 246 97" fill="none" xmlns="http://www.w3.org/2000/svg">
<path d="M55.8675 42.2404L60.0925 40.0488V6.96621H56.8976L49.0936 17.2806H48.2119L48.7095 5.78345H82.5442L83.0331 17.2806H82.1078L74.4609 6.96621H71.1874V39.9792L75.4386 42.2143V43.3362H55.8675V42.2404Z" fill="white"/>
<path d="M86.4287 40.7792V4.11358L83.1465 2.80906V2.12202L95.0096 0H96.2579V17.3501L96.5896 17.0718C99.2171 14.7845 102.988 13.3148 106.759 13.3148C111.953 13.3148 114.249 16.2369 114.249 21.6811V40.7792L117.025 42.2838V43.397H101.513V42.2925L104.298 40.7792V21.6115C104.298 18.6198 102.988 17.4197 100.527 17.4197C98.8854 17.4197 97.4713 17.9328 96.4238 18.7677V40.8227L99.156 42.3273V43.3883H83.6353V42.336L86.4287 40.7792Z" fill="white"/>
<path d="M126.059 29.5172C126.382 35.5789 129.106 40.2665 135.565 40.2665C138.691 40.2665 140.908 38.8228 142.994 37.727V38.9184C141.379 41.1187 137.285 44.2061 131.585 44.2061C121.572 44.2061 116.457 38.6662 116.457 29.065C116.457 19.6812 122.053 13.8369 131.096 13.8369C139.598 13.8369 144.015 18.0723 144.015 29.2215V29.5085H126.059V29.5172ZM125.893 28.1257L134.701 27.5865C134.701 20.0812 133.409 15.0979 130.825 15.0979C128.084 15.0979 125.893 20.8813 125.893 28.1257Z" fill="white"/>
<path d="M0 58.0162C0 42.0576 10.6061 36.3786 22.4168 36.3786C27.4274 36.3786 32.1587 37.1787 34.8037 38.2745L35.0306 49.4151H33.9046L26.9735 38.6397C25.7863 38.1353 24.6602 37.9353 22.5827 37.9353C16.3063 37.9353 13.0939 45.1623 13.19 57.0161C13.3122 71.1918 15.7826 77.6274 21.5439 77.6274C23.0453 77.6274 24.1976 77.4013 25.0007 77.0535V61.8602L21.1947 59.686V58.4162H39.5786V59.7729L35.8337 61.8602V76.8447C32.7261 78.0536 27.4798 79.2016 21.9454 79.2016C8.51979 79.2016 0 73.0008 0 58.0162Z" fill="white"/>
<path d="M38.9326 50.5722V49.6504L51.2933 47.4762L52.6463 47.5892V71.8533C52.6463 74.7754 54.0605 75.6799 56.4261 75.6799C57.9537 75.6799 59.333 75.1059 60.4329 73.7927V52.0333L57.0459 50.5722V49.6156L69.4066 47.4414L70.6461 47.5545V75.3668L73.9807 76.7583V77.6453L61.7859 79.1412L60.5463 79.0281V75.3755H60.2059C57.945 77.454 54.785 79.2542 50.9441 79.2542C45.0169 79.2542 42.3021 75.7668 42.3021 70.4792V52.0333L38.9326 50.5722Z" fill="white"/>
<path d="M117.069 47.424L118.081 47.5371V56.5208H118.361C119.679 49.9374 122.594 47.4762 126.147 47.4762C126.714 47.4762 127.334 47.5284 127.675 47.7023V56.8948C127.107 56.7296 126.095 56.6687 125.134 56.6687C122.315 56.6687 120.237 57.1731 118.413 58.008V75.7668L121.224 77.3235V78.4715H105.197V77.3322L108.086 75.7755V51.5376L104.699 50.5287V49.7026L117.069 47.424Z" fill="white"/>
<path d="M148.11 48.1807V38.7012L144.723 37.5185V36.7619L157.197 34.4746L158.384 34.6399V75.3495L161.832 76.5931V77.6455L149.524 79.2978L148.564 79.1848V75.8191H148.284C146.477 77.6194 143.989 79.2457 140.096 79.2457C133.375 79.2457 128.469 74.132 128.469 63.6697C128.469 52.6422 134.169 47.2241 142.811 47.2241C145.281 47.2241 147.149 47.6763 148.11 48.1807ZM148.083 74.245V49.9114C147.289 49.407 146.722 48.7808 144.67 48.8504C141.336 48.9635 139.276 53.9902 139.276 62.9305C139.276 70.975 140.76 75.4713 145.203 75.3234C146.451 75.2799 147.464 74.8364 148.083 74.245Z" fill="white"/>
<path d="M175.537 47.3975L176.611 47.5106V75.7578L179.43 77.3145V78.4625H163.403V77.3232L166.284 75.7665V51.9721L162.836 50.6241V49.6848L175.537 47.3975ZM176.672 39.7705C176.672 42.7535 174.132 44.9972 171.199 44.9972C168.152 44.9972 165.778 42.7448 165.778 39.7705C165.778 36.7875 168.152 34.4828 171.199 34.4828C174.132 34.4828 176.672 36.7875 176.672 39.7705Z" fill="white"/>
<path d="M214.391 75.7663V51.711L211.004 50.5283V49.3629L223.312 47.0756L224.552 47.1887V50.7892H224.892C227.546 48.4236 231.5 46.9104 235.394 46.9104C240.753 46.9104 243.128 49.4412 243.128 55.068V75.7142L246 77.3144V78.4623H229.973V77.3231L232.853 75.7663V55.6333C232.853 52.5372 231.5 51.3023 228.96 51.3023C227.319 51.3023 225.975 51.7197 224.726 52.6416V75.7576L227.546 77.3144V78.4623H211.51V77.3231L214.391 75.7663Z" fill="white"/>
<path d="M196.609 60.6512V56.6159C196.609 50.5368 195.283 48.5453 191.512 48.5453C191.066 48.5453 190.682 48.5974 190.237 48.6583L183.524 57.7204H182.582V49.3802C185.462 48.4931 189.067 47.4495 193.842 47.4495C202.048 47.4495 206.823 49.7193 206.823 56.5637V76.2358L209.765 77.0098V77.7839C208.604 78.5057 206.273 79.1666 203.715 79.1666C199.665 79.1666 197.727 77.8447 196.836 75.627H196.557C194.837 77.9491 192.402 79.271 188.57 79.271C183.69 79.271 180.364 76.2358 180.364 70.983C180.364 65.8953 183.524 63.1385 189.958 61.9209L196.609 60.6512ZM196.609 74.2443V62.0862L194.558 62.2514C191.337 62.5297 190.176 64.5734 190.176 69.1045C190.176 74.0181 191.782 75.2966 194.061 75.2966C195.335 75.2879 196.06 74.9052 196.609 74.2443Z" fill="white"/>
<path d="M90.3662 60.6512V56.6159C90.3662 50.5368 89.0394 48.5453 85.2596 48.5453C84.8144 48.5453 84.4303 48.5974 83.9851 48.6583L77.2723 57.7204H76.3295V49.3802C79.2102 48.4931 82.8154 47.4495 87.5903 47.4495C95.7958 47.4495 100.571 49.7193 100.571 56.5637V76.2358L103.513 77.0098V77.7839C102.352 78.5057 100.021 79.1666 97.4631 79.1666C93.4128 79.1666 91.4749 77.8447 90.5845 75.627H90.3051C88.5855 77.9491 86.1413 79.271 82.3178 79.271C77.4382 79.271 74.1123 76.2358 74.1123 70.983C74.1123 65.8953 77.2723 63.1385 83.7058 61.9209L90.3662 60.6512ZM90.3662 74.2443V62.0862L88.3148 62.2514C85.0937 62.5297 83.9327 64.5734 83.9327 69.1045C83.9327 74.0181 85.5389 75.2966 87.8173 75.2966C89.083 75.2879 89.8076 74.9052 90.3662 74.2443Z" fill="white"/>
<path d="M162.676 90.3039H157.79C157.809 91.2465 158.023 91.9559 158.434 92.4319C158.845 92.8985 159.479 93.1319 160.338 93.1319C160.758 93.1319 161.127 93.0852 161.444 92.9919C161.771 92.8985 162.074 92.7679 162.354 92.5999V93.2019C162.13 93.4539 161.789 93.6825 161.332 93.8879C160.884 94.0839 160.343 94.1819 159.708 94.1819C159.073 94.1819 158.518 94.0839 158.042 93.8879C157.575 93.6919 157.193 93.4212 156.894 93.0759C156.595 92.7212 156.371 92.2965 156.222 91.8019C156.073 91.3072 155.998 90.7659 155.998 90.1779C155.998 89.5805 156.082 89.0439 156.25 88.5679C156.427 88.0825 156.67 87.6765 156.978 87.3499C157.286 87.0139 157.655 86.7572 158.084 86.5799C158.523 86.4025 158.999 86.3139 159.512 86.3139C160.613 86.3139 161.416 86.6499 161.92 87.3219C162.424 87.9845 162.676 88.9365 162.676 90.1779V90.3039ZM159.47 86.9579C158.938 86.9579 158.527 87.1819 158.238 87.6299C157.949 88.0779 157.79 88.7639 157.762 89.6879L160.926 89.5759C160.926 88.6332 160.805 87.9612 160.562 87.5599C160.329 87.1585 159.965 86.9579 159.47 86.9579Z" fill="#FFE500"/>
<path d="M150.485 86.72L152.935 86.356L153.145 86.426V87.728H153.201C153.416 87.2614 153.696 86.9067 154.041 86.664C154.387 86.412 154.765 86.286 155.175 86.286C155.269 86.286 155.353 86.2907 155.427 86.3C155.511 86.3094 155.572 86.3234 155.609 86.342V87.896C155.544 87.8867 155.455 87.8774 155.343 87.868C155.241 87.8494 155.133 87.84 155.021 87.84C154.639 87.84 154.298 87.882 153.999 87.966C153.701 88.0407 153.435 88.1574 153.201 88.316V93.272L154.349 93.538V94H150.513V93.538L151.451 93.272V87.434L150.485 87.168V86.72Z" fill="#FFE500"/>
<path d="M142.742 87.3779L141.762 87.1119V86.6358L144.24 86.3559L144.478 86.4259V91.9419C144.478 92.3992 144.59 92.7165 144.814 92.8939C145.038 93.0712 145.336 93.1599 145.71 93.1599C146.027 93.1599 146.312 93.1225 146.564 93.0479C146.816 92.9639 147.058 92.8752 147.292 92.7818V87.3779L146.326 87.1119V86.6358L148.776 86.3559L149.028 86.4259V93.0759L149.966 93.3699V93.8179L147.558 94.1399L147.32 94.0978V93.2999H147.264C146.937 93.5145 146.573 93.7105 146.172 93.8878C145.77 94.0652 145.341 94.1539 144.884 94.1539C144.165 94.1539 143.628 93.9812 143.274 93.6358C142.919 93.2812 142.742 92.7585 142.742 92.0679V87.3779Z" fill="#FFE500"/>
<path d="M137.479 87.2239H136.401V86.7339L137.479 86.4539V84.9139L139.215 84.6339V86.4539H141.189V87.2239H139.215V92.0679C139.215 92.4973 139.299 92.8006 139.467 92.9779C139.645 93.1459 139.976 93.2299 140.461 93.2299C140.601 93.2299 140.746 93.2253 140.895 93.2159C141.054 93.1973 141.189 93.1739 141.301 93.1459V93.7059C141.124 93.8086 140.877 93.9066 140.559 93.9999C140.242 94.0839 139.897 94.1259 139.523 94.1259C138.851 94.1259 138.343 93.9813 137.997 93.6919C137.652 93.3933 137.479 92.8799 137.479 92.1519V87.2239Z" fill="#FFE500"/>
<path d="M133.223 94.1679C132.635 94.1679 132.117 94.0745 131.669 93.8879C131.221 93.7012 130.848 93.4399 130.549 93.1039C130.251 92.7585 130.027 92.3479 129.877 91.8719C129.728 91.3865 129.653 90.8499 129.653 90.2619C129.653 89.5992 129.751 89.0205 129.947 88.5259C130.153 88.0312 130.428 87.6205 130.773 87.2939C131.119 86.9672 131.529 86.7245 132.005 86.5659C132.491 86.3979 133.013 86.3139 133.573 86.3139C133.975 86.3139 134.357 86.3372 134.721 86.3839C135.095 86.4305 135.412 86.4959 135.673 86.5799V88.5819H134.875L134.525 87.0979C134.432 87.0512 134.311 87.0185 134.161 86.9999C134.012 86.9719 133.844 86.9579 133.657 86.9579C132.939 86.9579 132.388 87.2192 132.005 87.7419C131.632 88.2552 131.445 89.0252 131.445 90.0519C131.445 91.1345 131.655 91.9185 132.075 92.4039C132.505 92.8892 133.111 93.1319 133.895 93.1319C134.325 93.1319 134.689 93.0899 134.987 93.0059C135.286 92.9125 135.552 92.7912 135.785 92.6419V93.2299C135.524 93.4912 135.188 93.7152 134.777 93.9019C134.367 94.0792 133.849 94.1679 133.223 94.1679Z" fill="#FFE500"/>
<path d="M127.19 83.3038C127.47 83.3038 127.713 83.4018 127.918 83.5978C128.123 83.7845 128.226 84.0178 128.226 84.2978C128.226 84.5685 128.123 84.8018 127.918 84.9978C127.713 85.1845 127.47 85.2778 127.19 85.2778C126.901 85.2778 126.658 85.1845 126.462 84.9978C126.266 84.8018 126.168 84.5685 126.168 84.2978C126.168 84.0178 126.266 83.7845 126.462 83.5978C126.658 83.4018 126.901 83.3038 127.19 83.3038ZM125.412 86.7198L127.918 86.3558L128.128 86.4258V93.2718L129.094 93.5378V93.9998H125.426V93.5378L126.378 93.2718V87.4338L125.412 87.1678V86.7198Z" fill="#FFE500"/>
<path d="M124.772 89.9819C124.772 90.6819 124.679 91.2979 124.492 91.8299C124.315 92.3525 124.063 92.7865 123.736 93.1319C123.419 93.4772 123.032 93.7385 122.574 93.9159C122.126 94.0839 121.641 94.1679 121.118 94.1679C120.829 94.1679 120.563 94.1445 120.32 94.0979C120.078 94.0605 119.868 94.0092 119.69 93.9439V96.1139L120.81 96.3939V96.8699H117.002V96.3939L117.954 96.1279V87.4479L116.988 87.1679V86.7199L119.438 86.3559L119.662 86.4259V87.1679H119.732C119.994 86.9439 120.311 86.7479 120.684 86.5799C121.067 86.4025 121.51 86.3139 122.014 86.3139C122.369 86.3139 122.714 86.3792 123.05 86.5099C123.386 86.6312 123.68 86.8365 123.932 87.1259C124.184 87.4059 124.385 87.7839 124.534 88.2599C124.693 88.7265 124.772 89.3005 124.772 89.9819ZM122.966 90.2479C122.966 89.1652 122.798 88.4045 122.462 87.9659C122.136 87.5272 121.664 87.3079 121.048 87.3079C120.778 87.3079 120.521 87.3499 120.278 87.4339C120.036 87.5085 119.84 87.5925 119.69 87.6859V93.1039C119.84 93.1972 120.003 93.2812 120.18 93.3559C120.367 93.4305 120.614 93.4679 120.922 93.4679C121.548 93.4679 122.042 93.2299 122.406 92.7539C122.78 92.2779 122.966 91.4425 122.966 90.2479Z" fill="#FFE500"/>
<path d="M114.018 90.3039H109.132C109.151 91.2465 109.365 91.9559 109.776 92.4319C110.187 92.8985 110.821 93.1319 111.68 93.1319C112.1 93.1319 112.469 93.0852 112.786 92.9919C113.113 92.8985 113.416 92.7679 113.696 92.5999V93.2019C113.472 93.4539 113.131 93.6825 112.674 93.8879C112.226 94.0839 111.685 94.1819 111.05 94.1819C110.415 94.1819 109.86 94.0839 109.384 93.8879C108.917 93.6919 108.535 93.4212 108.236 93.0759C107.937 92.7212 107.713 92.2965 107.564 91.8019C107.415 91.3072 107.34 90.7659 107.34 90.1779C107.34 89.5805 107.424 89.0439 107.592 88.5679C107.769 88.0825 108.012 87.6765 108.32 87.3499C108.628 87.0139 108.997 86.7572 109.426 86.5799C109.865 86.4025 110.341 86.3139 110.854 86.3139C111.955 86.3139 112.758 86.6499 113.262 87.3219C113.766 87.9845 114.018 88.9365 114.018 90.1779V90.3039ZM110.812 86.9579C110.28 86.9579 109.869 87.1819 109.58 87.6299C109.291 88.0779 109.132 88.7639 109.104 89.6879L112.268 89.5759C112.268 88.6332 112.147 87.9612 111.904 87.5599C111.671 87.1585 111.307 86.9579 110.812 86.9579Z" fill="#FFE500"/>
<path d="M103.154 83.2618L105.632 82.8978L105.856 82.9678V93.2578L106.822 93.5238V93.9998H103.168V93.5238L104.12 93.2578V83.9338L103.154 83.7238V83.2618Z" fill="#FFE500"/>
<path d="M98.9089 94.1959C98.3582 94.1959 97.8542 94.1025 97.3969 93.9159C96.9489 93.7292 96.5616 93.4679 96.2349 93.1319C95.9176 92.7865 95.6656 92.3712 95.4789 91.8859C95.3016 91.3912 95.2129 90.8499 95.2129 90.2619C95.2129 89.6645 95.3062 89.1232 95.4929 88.6379C95.6796 88.1525 95.9362 87.7372 96.2629 87.3919C96.5896 87.0465 96.9769 86.7805 97.4249 86.5939C97.8729 86.4072 98.3582 86.3139 98.8809 86.3139C99.4316 86.3139 99.9309 86.4072 100.379 86.5939C100.836 86.7712 101.224 87.0279 101.541 87.3639C101.868 87.6999 102.12 88.1105 102.297 88.5959C102.484 89.0812 102.577 89.6225 102.577 90.2199C102.577 90.8172 102.484 91.3632 102.297 91.8579C102.11 92.3432 101.854 92.7585 101.527 93.1039C101.21 93.4492 100.822 93.7199 100.365 93.9159C99.9169 94.1025 99.4316 94.1959 98.9089 94.1959ZM98.8669 86.9719C98.3162 86.9719 97.8822 87.2192 97.5649 87.7139C97.2569 88.2085 97.1029 89.0392 97.1029 90.2059C97.1029 91.4005 97.2616 92.2545 97.5789 92.7679C97.9056 93.2812 98.3536 93.5379 98.9229 93.5379C99.4736 93.5379 99.9029 93.2905 100.211 92.7959C100.519 92.2919 100.673 91.4519 100.673 90.2759C100.673 89.0812 100.51 88.2319 100.183 87.7279C99.8656 87.2239 99.4269 86.9719 98.8669 86.9719Z" fill="#FFE500"/>
<path d="M86.5426 93.5378L87.4806 93.2578V83.9898L86.5146 83.7238V83.2618L88.9786 82.8978L89.2026 82.9678V87.1398H89.3006C89.646 86.9158 90.0287 86.7245 90.4487 86.5658C90.878 86.3978 91.3213 86.3138 91.7786 86.3138C92.4693 86.3138 92.9826 86.4725 93.3186 86.7898C93.6546 87.0978 93.8227 87.6065 93.8227 88.3158V93.2578L94.7607 93.5378V93.9998H91.1907V93.5378L92.0727 93.2858V88.5818C92.0727 88.1245 91.9606 87.8025 91.7366 87.6158C91.5126 87.4198 91.214 87.3218 90.8406 87.3218C90.5046 87.3218 90.2106 87.3592 89.9586 87.4338C89.7066 87.5085 89.464 87.5925 89.2306 87.6858V93.2858L90.1126 93.5378V93.9998H86.5426V93.5378Z" fill="#FFE500"/>
<path d="M81.6864 86.454L83.4224 91.76H83.5064L84.7244 87.224L83.8844 86.93V86.454H86.2504V86.93L85.5924 87.224L83.6604 94H82.3724L80.7064 88.988H80.6644L79.1664 94H77.8784L75.8484 87.224L75.1904 86.93V86.454H78.5644V86.93L77.7244 87.224L78.9704 91.676H79.0544L80.5244 86.454H81.6864Z" fill="#FFE500"/>
<path d="M72.3734 90.3039H67.4874C67.5061 91.2465 67.7208 91.9559 68.1314 92.4319C68.5421 92.8985 69.1768 93.1319 70.0354 93.1319C70.4554 93.1319 70.8241 93.0852 71.1414 92.9919C71.4681 92.8985 71.7714 92.7679 72.0514 92.5999V93.2019C71.8274 93.4539 71.4868 93.6825 71.0294 93.8879C70.5814 94.0839 70.0401 94.1819 69.4054 94.1819C68.7708 94.1819 68.2154 94.0839 67.7394 93.8879C67.2728 93.6919 66.8901 93.4212 66.5914 93.0759C66.2928 92.7212 66.0688 92.2965 65.9194 91.8019C65.7701 91.3072 65.6954 90.7659 65.6954 90.1779C65.6954 89.5805 65.7794 89.0439 65.9474 88.5679C66.1248 88.0825 66.3674 87.6765 66.6754 87.3499C66.9834 87.0139 67.3521 86.7572 67.7814 86.5799C68.2201 86.4025 68.6961 86.3139 69.2094 86.3139C70.3108 86.3139 71.1134 86.6499 71.6174 87.3219C72.1214 87.9845 72.3734 88.9365 72.3734 90.1779V90.3039ZM69.1674 86.9579C68.6354 86.9579 68.2248 87.1819 67.9354 87.6299C67.6461 88.0779 67.4874 88.7639 67.4594 89.6879L70.6234 89.5759C70.6234 88.6332 70.5021 87.9612 70.2594 87.5599C70.0261 87.1585 69.6621 86.9579 69.1674 86.9579Z" fill="#FFE500"/>
<path d="M57.0114 93.5378L57.9494 93.2578V83.9898L56.9834 83.7238V83.2618L59.4474 82.8978L59.6714 82.9678V87.1398H59.7694C60.1147 86.9158 60.4974 86.7245 60.9174 86.5658C61.3467 86.3978 61.7901 86.3138 62.2474 86.3138C62.9381 86.3138 63.4514 86.4725 63.7874 86.7898C64.1234 87.0978 64.2914 87.6065 64.2914 88.3158V93.2578L65.2294 93.5378V93.9998H61.6594V93.5378L62.5414 93.2858V88.5818C62.5414 88.1245 62.4294 87.8025 62.2054 87.6158C61.9814 87.4198 61.6827 87.3218 61.3094 87.3218C60.9734 87.3218 60.6794 87.3592 60.4274 87.4338C60.1754 87.5085 59.9327 87.5925 59.6994 87.6858V93.2858L60.5814 93.5378V93.9998H57.0114V93.5378Z" fill="#FFE500"/>
<path d="M50.1 93.9999V93.4399L51.304 93.1739V84.6479H49.344L48.826 86.8599H48L48.154 83.9059H56.442L56.582 86.8599H55.742L55.238 84.6479H53.292V93.1739L54.482 93.4399V93.9999H50.1Z" fill="#FFE500"/>
</svg>
