<svg viewBox="0 0 173 72" fill="none" xmlns="http://www.w3.org/2000/svg">
<path d="M39.2893 29.7629L42.2605 28.2187V4.90849H40.0137L34.5255 12.1761H33.9055L34.2554 4.0751H58.0498L58.3936 12.1761H57.7428L52.3652 4.90849H50.0631V28.1697L53.0527 29.7445V30.535H39.2893V29.7629Z" fill="white"/>
<path d="M60.781 28.7333V2.89846L58.4728 1.97928V1.49519L66.8156 0H67.6934V12.225L67.9267 12.0289C69.7745 10.4173 72.4265 9.38169 75.0785 9.38169C78.7311 9.38169 80.3457 11.4406 80.3457 15.2766V28.7333L82.2978 29.7934V30.5778H71.389V29.7996L73.3473 28.7333V15.2276C73.3473 13.1197 72.4265 12.274 70.6953 12.274C69.5412 12.274 68.5467 12.6356 67.8101 13.2238V28.764L69.7315 29.8241V30.5717H58.8166V29.8302L60.781 28.7333Z" fill="white"/>
<path d="M88.6522 20.798C88.8793 25.0691 90.7947 28.372 95.3374 28.372C97.5352 28.372 99.0944 27.3547 100.562 26.5826V27.4221C99.4259 28.9725 96.5468 31.1479 92.5381 31.1479C85.4968 31.1479 81.8994 27.2444 81.8994 20.4793C81.8994 13.8674 85.8344 9.74951 92.1943 9.74951C98.1736 9.74951 101.28 12.7338 101.28 20.5896V20.7918H88.6522V20.798ZM88.5356 19.8175L94.7297 19.4376C94.7297 14.1493 93.8211 10.638 92.004 10.638C90.0764 10.638 88.5356 14.713 88.5356 19.8175Z" fill="white"/>
<path d="M0 40.8786C0 29.634 7.45875 25.6326 15.7647 25.6326C19.2884 25.6326 22.6157 26.1963 24.4758 26.9684L24.6354 34.8182H23.8435L18.9692 27.2258C18.1343 26.8704 17.3424 26.7294 15.8813 26.7294C11.4675 26.7294 9.20834 31.8217 9.27586 40.1739C9.36181 50.1622 11.0991 54.6968 15.1508 54.6968C16.2067 54.6968 17.017 54.5375 17.5818 54.2924V43.5871L14.9052 42.0551V41.1605H27.8337V42.1164L25.2001 43.5871V54.1453C23.0147 54.9971 19.3252 55.8059 15.4332 55.8059C5.99156 55.8059 0 51.4368 0 40.8786Z" fill="white"/>
<path d="M27.3799 35.6335V34.984L36.0726 33.452L37.0241 33.5317V50.6283C37.0241 52.6872 38.0186 53.3245 39.6822 53.3245C40.7565 53.3245 41.7265 52.9201 42.5 51.9948V36.663L40.1181 35.6335V34.9594L48.8107 33.4275L49.6825 33.5072V53.1039L52.0275 54.0844V54.7094L43.4515 55.7634L42.5798 55.6837V53.11H42.3404C40.7504 54.5746 38.5281 55.843 35.827 55.843C31.6587 55.843 29.7495 53.3858 29.7495 49.6601V36.663L27.3799 35.6335Z" fill="white"/>
<path d="M82.3287 33.4153L83.0408 33.4949V39.825H83.2372C84.1642 35.1862 86.2146 33.452 88.7131 33.452C89.1122 33.452 89.548 33.4888 89.7874 33.6114V40.0885C89.3884 39.972 88.6763 39.9292 88.001 39.9292C86.0182 39.9292 84.5571 40.2846 83.2741 40.8728V53.3858L85.2508 54.4827V55.2916H73.9798V54.4888L76.0118 53.392V36.3137L73.6299 35.6029V35.0208L82.3287 33.4153Z" fill="white"/>
<path d="M104.159 33.9485V27.2692L101.777 26.4358V25.9027L110.55 24.2911L111.384 24.4075V53.0918L113.809 53.9681V54.7096L105.153 55.8739L104.478 55.7942V53.4227H104.282C103.011 54.6912 101.261 55.8371 98.5235 55.8371C93.7965 55.8371 90.3465 52.234 90.3465 44.8622C90.3465 37.0921 94.3551 33.2745 100.433 33.2745C102.17 33.2745 103.484 33.5931 104.159 33.9485ZM104.141 52.3136V35.168C103.582 34.8126 103.183 34.3714 101.74 34.4204C99.3952 34.5001 97.9464 38.0419 97.9464 44.3413C97.9464 50.0096 98.99 53.1776 102.115 53.0735C102.993 53.0428 103.705 52.7303 104.141 52.3136Z" fill="white"/>
<path d="M123.447 33.3966L124.202 33.4763V53.3794L126.185 54.4763V55.2852H114.914V54.4825L116.94 53.3856V36.6199L114.515 35.6701V35.0083L123.447 33.3966ZM124.245 28.0225C124.245 30.1244 122.459 31.7054 120.396 31.7054C118.253 31.7054 116.584 30.1183 116.584 28.0225C116.584 25.9207 118.253 24.2968 120.396 24.2968C122.459 24.2968 124.245 25.9207 124.245 28.0225Z" fill="white"/>
<path d="M150.771 53.3855V36.436L148.389 35.6026V34.7815L157.045 33.1699L157.916 33.2495V35.7864H158.156C160.022 34.1197 162.803 33.0534 165.541 33.0534C169.31 33.0534 170.98 34.8366 170.98 38.8013V53.3488L173 54.4763V55.2852H161.729V54.4824L163.755 53.3855V39.1996C163.755 37.0181 162.803 36.148 161.017 36.148C159.862 36.148 158.917 36.4421 158.039 37.0917V53.3794L160.022 54.4763V55.2852H148.745V54.4824L150.771 53.3855Z" fill="white"/>
<path d="M138.266 42.7353V39.892C138.266 35.6087 137.333 34.2054 134.681 34.2054C134.368 34.2054 134.098 34.2422 133.785 34.2851L129.064 40.6702H128.401V34.7937C130.427 34.1686 132.962 33.4333 136.32 33.4333C142.091 33.4333 145.449 35.0326 145.449 39.8552V53.7164L147.517 54.2617V54.8071C146.701 55.3157 145.062 55.7814 143.263 55.7814C140.415 55.7814 139.052 54.85 138.426 53.2874H138.229C137.02 54.9235 135.307 55.855 132.612 55.855C129.181 55.855 126.842 53.7164 126.842 50.0152C126.842 46.4304 129.064 44.4879 133.588 43.63L138.266 42.7353ZM138.266 52.3131V43.7464L136.823 43.8628C134.558 44.0589 133.742 45.499 133.742 48.6916C133.742 52.1538 134.871 53.0546 136.474 53.0546C137.37 53.0484 137.879 52.7788 138.266 52.3131Z" fill="white"/>
<path d="M63.55 42.7353V39.892C63.55 35.6087 62.6168 34.2054 59.9587 34.2054C59.6456 34.2054 59.3755 34.2422 59.0624 34.2851L54.3416 40.6702H53.6786V34.7937C55.7045 34.1686 58.2398 33.4333 61.5978 33.4333C67.3683 33.4333 70.7263 35.0326 70.7263 39.8552V53.7164L72.7951 54.2617V54.8071C71.9786 55.3157 70.3396 55.7814 68.5409 55.7814C65.6924 55.7814 64.3296 54.85 63.7034 53.2874H63.507C62.2976 54.9235 60.5787 55.855 57.8899 55.855C54.4583 55.855 52.1194 53.7164 52.1194 50.0152C52.1194 46.4304 54.3416 44.4879 58.866 43.63L63.55 42.7353ZM63.55 52.3131V43.7464L62.1073 43.8628C59.8421 44.0589 59.0256 45.499 59.0256 48.6916C59.0256 52.1538 60.1552 53.0546 61.7574 53.0546C62.6475 53.0484 63.1571 52.7788 63.55 52.3131Z" fill="white"/>
<path d="M142.64 65.568H138.103C138.121 66.4434 138.32 67.102 138.701 67.544C139.083 67.9774 139.672 68.194 140.469 68.194C140.859 68.194 141.202 68.1507 141.496 68.064C141.8 67.9774 142.081 67.856 142.341 67.7V68.259C142.133 68.493 141.817 68.7054 141.392 68.896C140.976 69.078 140.474 69.169 139.884 69.169C139.295 69.169 138.779 69.078 138.337 68.896C137.904 68.714 137.549 68.4627 137.271 68.142C136.994 67.8127 136.786 67.4184 136.647 66.959C136.509 66.4997 136.439 65.997 136.439 65.451C136.439 64.8964 136.517 64.398 136.673 63.956C136.838 63.5054 137.063 63.1284 137.349 62.825C137.635 62.513 137.978 62.2747 138.376 62.11C138.784 61.9454 139.226 61.863 139.702 61.863C140.725 61.863 141.47 62.175 141.938 62.799C142.406 63.4144 142.64 64.2984 142.64 65.451V65.568ZM139.663 62.461C139.169 62.461 138.788 62.669 138.519 63.085C138.251 63.501 138.103 64.138 138.077 64.996L141.015 64.892C141.015 64.0167 140.903 63.3927 140.677 63.02C140.461 62.6474 140.123 62.461 139.663 62.461Z" fill="#FFE500"/>
<path d="M131.321 62.2402L133.596 61.9022L133.791 61.9672V63.1762H133.843C134.043 62.7428 134.303 62.4135 134.623 62.1882C134.944 61.9542 135.295 61.8372 135.676 61.8372C135.763 61.8372 135.841 61.8415 135.91 61.8502C135.988 61.8588 136.045 61.8718 136.079 61.8892V63.3322C136.019 63.3235 135.936 63.3148 135.832 63.3062C135.737 63.2888 135.637 63.2802 135.533 63.2802C135.178 63.2802 134.862 63.3192 134.584 63.3972C134.307 63.4665 134.06 63.5748 133.843 63.7222V68.3242L134.909 68.5712V69.0002H131.347V68.5712L132.218 68.3242V62.9032L131.321 62.6562V62.2402Z" fill="#FFE500"/>
<path d="M124.13 62.8511L123.22 62.6041V62.1621L125.521 61.9021L125.742 61.9671V67.0891C125.742 67.5138 125.846 67.8084 126.054 67.9731C126.262 68.1378 126.539 68.2201 126.886 68.2201C127.18 68.2201 127.445 68.1854 127.679 68.1161C127.913 68.0381 128.138 67.9558 128.355 67.8691V62.8511L127.458 62.6041V62.1621L129.733 61.9021L129.967 61.9671V68.1421L130.838 68.4151V68.8311L128.602 69.1301L128.381 69.0911V68.3501H128.329C128.025 68.5494 127.687 68.7314 127.315 68.8961C126.942 69.0608 126.543 69.1431 126.119 69.1431C125.451 69.1431 124.953 68.9828 124.624 68.6621C124.294 68.3328 124.13 67.8474 124.13 67.2061V62.8511Z" fill="#FFE500"/>
<path d="M119.244 62.7081H118.243V62.2531L119.244 61.9931V60.5631L120.856 60.3031V61.9931H122.689V62.7081H120.856V67.2061C120.856 67.6048 120.934 67.8864 121.09 68.0511C121.255 68.2071 121.563 68.2851 122.013 68.2851C122.143 68.2851 122.278 68.2808 122.416 68.2721C122.564 68.2548 122.689 68.2331 122.793 68.2071V68.7271C122.629 68.8224 122.399 68.9134 122.104 69.0001C121.81 69.0781 121.489 69.1171 121.142 69.1171C120.518 69.1171 120.046 68.9828 119.725 68.7141C119.405 68.4368 119.244 67.9601 119.244 67.2841V62.7081Z" fill="#FFE500"/>
<path d="M115.292 69.1562C114.746 69.1562 114.265 69.0695 113.849 68.8962C113.433 68.7228 113.086 68.4802 112.809 68.1682C112.531 67.8475 112.323 67.4662 112.185 67.0242C112.046 66.5735 111.977 66.0752 111.977 65.5292C111.977 64.9138 112.068 64.3765 112.25 63.9172C112.44 63.4578 112.696 63.0765 113.017 62.7732C113.337 62.4698 113.719 62.2445 114.161 62.0972C114.611 61.9412 115.097 61.8632 115.617 61.8632C115.989 61.8632 116.345 61.8848 116.683 61.9282C117.029 61.9715 117.324 62.0322 117.567 62.1102V63.9692H116.826L116.501 62.5912C116.414 62.5478 116.301 62.5175 116.163 62.5002C116.024 62.4742 115.868 62.4612 115.695 62.4612C115.027 62.4612 114.516 62.7038 114.161 63.1892C113.814 63.6658 113.641 64.3808 113.641 65.3342C113.641 66.3395 113.836 67.0675 114.226 67.5182C114.624 67.9688 115.188 68.1942 115.916 68.1942C116.314 68.1942 116.652 68.1552 116.93 68.0772C117.207 67.9905 117.454 67.8778 117.671 67.7392V68.2852C117.428 68.5278 117.116 68.7358 116.735 68.9092C116.353 69.0738 115.872 69.1562 115.292 69.1562Z" fill="#FFE500"/>
<path d="M109.69 59.0681C109.95 59.0681 110.175 59.1591 110.366 59.3411C110.557 59.5144 110.652 59.7311 110.652 59.9911C110.652 60.2424 110.557 60.4591 110.366 60.6411C110.175 60.8144 109.95 60.9011 109.69 60.9011C109.421 60.9011 109.196 60.8144 109.014 60.6411C108.832 60.4591 108.741 60.2424 108.741 59.9911C108.741 59.7311 108.832 59.5144 109.014 59.3411C109.196 59.1591 109.421 59.0681 109.69 59.0681ZM108.039 62.2401L110.366 61.9021L110.561 61.9671V68.3241L111.458 68.5711V69.0001H108.052V68.5711L108.936 68.3241V62.9031L108.039 62.6561V62.2401Z" fill="#FFE500"/>
<path d="M107.445 65.2692C107.445 65.9192 107.358 66.4912 107.185 66.9852C107.02 67.4705 106.786 67.8735 106.483 68.1942C106.188 68.5148 105.829 68.7575 105.404 68.9222C104.988 69.0782 104.537 69.1562 104.052 69.1562C103.783 69.1562 103.536 69.1345 103.311 69.0912C103.086 69.0565 102.891 69.0088 102.726 68.9482V70.9632L103.766 71.2232V71.6652H100.23V71.2232L101.114 70.9762V62.9162L100.217 62.6562V62.2402L102.492 61.9022L102.7 61.9672V62.6562H102.765C103.008 62.4482 103.302 62.2662 103.649 62.1102C104.004 61.9455 104.416 61.8632 104.884 61.8632C105.213 61.8632 105.534 61.9238 105.846 62.0452C106.158 62.1578 106.431 62.3485 106.665 62.6172C106.899 62.8772 107.085 63.2282 107.224 63.6702C107.371 64.1035 107.445 64.6365 107.445 65.2692ZM105.768 65.5162C105.768 64.5108 105.612 63.8045 105.3 63.3972C104.997 62.9898 104.559 62.7862 103.987 62.7862C103.736 62.7862 103.497 62.8252 103.272 62.9032C103.047 62.9725 102.865 63.0505 102.726 63.1372V68.1682C102.865 68.2548 103.016 68.3328 103.181 68.4022C103.354 68.4715 103.584 68.5062 103.87 68.5062C104.451 68.5062 104.91 68.2852 105.248 67.8432C105.595 67.4012 105.768 66.6255 105.768 65.5162Z" fill="#FFE500"/>
<path d="M97.4588 65.568H92.9218C92.9391 66.4434 93.1385 67.102 93.5198 67.544C93.9011 67.9774 94.4905 68.194 95.2878 68.194C95.6778 68.194 96.0201 68.1507 96.3148 68.064C96.6181 67.9774 96.8998 67.856 97.1598 67.7V68.259C96.9518 68.493 96.6355 68.7054 96.2108 68.896C95.7948 69.078 95.2921 69.169 94.7028 69.169C94.1135 69.169 93.5978 69.078 93.1558 68.896C92.7225 68.714 92.3671 68.4627 92.0898 68.142C91.8125 67.8127 91.6045 67.4184 91.4658 66.959C91.3271 66.4997 91.2578 65.997 91.2578 65.451C91.2578 64.8964 91.3358 64.398 91.4918 63.956C91.6565 63.5054 91.8818 63.1284 92.1678 62.825C92.4538 62.513 92.7961 62.2747 93.1948 62.11C93.6021 61.9454 94.0441 61.863 94.5208 61.863C95.5435 61.863 96.2888 62.175 96.7568 62.799C97.2248 63.4144 97.4588 64.2984 97.4588 65.451V65.568ZM94.4818 62.461C93.9878 62.461 93.6065 62.669 93.3378 63.085C93.0691 63.501 92.9218 64.138 92.8958 64.996L95.8338 64.892C95.8338 64.0167 95.7211 63.3927 95.4958 63.02C95.2791 62.6474 94.9411 62.461 94.4818 62.461Z" fill="#FFE500"/>
<path d="M87.3711 59.0292L89.6721 58.6912L89.8801 58.7562V68.3112L90.7771 68.5582V69.0002H87.3841V68.5582L88.2681 68.3112V59.6532L87.3711 59.4582V59.0292Z" fill="#FFE500"/>
<path d="M83.4283 69.1822C82.9169 69.1822 82.4489 69.0955 82.0243 68.9222C81.6083 68.7488 81.2486 68.5062 80.9453 68.1942C80.6506 67.8735 80.4166 67.4878 80.2433 67.0372C80.0786 66.5778 79.9963 66.0752 79.9963 65.5292C79.9963 64.9745 80.0829 64.4718 80.2563 64.0212C80.4296 63.5705 80.6679 63.1848 80.9713 62.8642C81.2746 62.5435 81.6343 62.2965 82.0503 62.1232C82.4663 61.9498 82.9169 61.8632 83.4023 61.8632C83.9136 61.8632 84.3773 61.9498 84.7933 62.1232C85.2179 62.2878 85.5776 62.5262 85.8723 62.8382C86.1756 63.1502 86.4096 63.5315 86.5743 63.9822C86.7476 64.4328 86.8343 64.9355 86.8343 65.4902C86.8343 66.0448 86.7476 66.5518 86.5743 67.0112C86.4009 67.4618 86.1626 67.8475 85.8593 68.1682C85.5646 68.4888 85.2049 68.7402 84.7803 68.9222C84.3643 69.0955 83.9136 69.1822 83.4283 69.1822ZM83.3893 62.4742C82.8779 62.4742 82.4749 62.7038 82.1803 63.1632C81.8943 63.6225 81.7513 64.3938 81.7513 65.4772C81.7513 66.5865 81.8986 67.3795 82.1933 67.8562C82.4966 68.3328 82.9126 68.5712 83.4413 68.5712C83.9526 68.5712 84.3513 68.3415 84.6373 67.8822C84.9233 67.4142 85.0663 66.6342 85.0663 65.5422C85.0663 64.4328 84.9146 63.6442 84.6113 63.1762C84.3166 62.7082 83.9093 62.4742 83.3893 62.4742Z" fill="#FFE500"/>
<path d="M71.9459 68.5712L72.8169 68.3112V59.7052L71.9199 59.4582V59.0292L74.2079 58.6912L74.4159 58.7562V62.6302H74.5069C74.8276 62.4222 75.1829 62.2445 75.5729 62.0972C75.9716 61.9412 76.3833 61.8632 76.8079 61.8632C77.4493 61.8632 77.9259 62.0105 78.2379 62.3052C78.5499 62.5912 78.7059 63.0635 78.7059 63.7222V68.3112L79.5769 68.5712V69.0002H76.2619V68.5712L77.0809 68.3372V63.9692C77.0809 63.5445 76.9769 63.2455 76.7689 63.0722C76.5609 62.8902 76.2836 62.7992 75.9369 62.7992C75.6249 62.7992 75.3519 62.8338 75.1179 62.9032C74.8839 62.9725 74.6586 63.0505 74.4419 63.1372V68.3372L75.2609 68.5712V69.0002H71.9459V68.5712Z" fill="#FFE500"/>
<path d="M67.4363 61.9932L69.0483 66.9202H69.1263L70.2573 62.7082L69.4773 62.4352V61.9932H71.6743V62.4352L71.0633 62.7082L69.2693 69.0002H68.0733L66.5263 64.3462H66.4873L65.0963 69.0002H63.9003L62.0153 62.7082L61.4043 62.4352V61.9932H64.5373V62.4352L63.7573 62.7082L64.9143 66.8422H64.9923L66.3573 61.9932H67.4363Z" fill="#FFE500"/>
<path d="M58.7889 65.568H54.2519C54.2692 66.4434 54.4686 67.102 54.8499 67.544C55.2312 67.9774 55.8206 68.194 56.6179 68.194C57.0079 68.194 57.3502 68.1507 57.6449 68.064C57.9482 67.9774 58.2299 67.856 58.4899 67.7V68.259C58.2819 68.493 57.9656 68.7054 57.5409 68.896C57.1249 69.078 56.6222 69.169 56.0329 69.169C55.4436 69.169 54.9279 69.078 54.4859 68.896C54.0526 68.714 53.6972 68.4627 53.4199 68.142C53.1426 67.8127 52.9346 67.4184 52.7959 66.959C52.6572 66.4997 52.5879 65.997 52.5879 65.451C52.5879 64.8964 52.6659 64.398 52.8219 63.956C52.9866 63.5054 53.2119 63.1284 53.4979 62.825C53.7839 62.513 54.1262 62.2747 54.5249 62.11C54.9322 61.9454 55.3742 61.863 55.8509 61.863C56.8736 61.863 57.6189 62.175 58.0869 62.799C58.5549 63.4144 58.7889 64.2984 58.7889 65.451V65.568ZM55.8119 62.461C55.3179 62.461 54.9366 62.669 54.6679 63.085C54.3992 63.501 54.2519 64.138 54.2259 64.996L57.1639 64.892C57.1639 64.0167 57.0512 63.3927 56.8259 63.02C56.6092 62.6474 56.2712 62.461 55.8119 62.461Z" fill="#FFE500"/>
<path d="M44.524 68.5712L45.395 68.3112V59.7052L44.498 59.4582V59.0292L46.786 58.6912L46.994 58.7562V62.6302H47.085C47.4057 62.4222 47.761 62.2445 48.151 62.0972C48.5497 61.9412 48.9614 61.8632 49.386 61.8632C50.0274 61.8632 50.504 62.0105 50.816 62.3052C51.128 62.5912 51.284 63.0635 51.284 63.7222V68.3112L52.155 68.5712V69.0002H48.84V68.5712L49.659 68.3372V63.9692C49.659 63.5445 49.555 63.2455 49.347 63.0722C49.139 62.8902 48.8617 62.7992 48.515 62.7992C48.203 62.7992 47.93 62.8338 47.696 62.9032C47.462 62.9725 47.2367 63.0505 47.02 63.1372V68.3372L47.839 68.5712V69.0002H44.524V68.5712Z" fill="#FFE500"/>
<path d="M38.1062 69.0001V68.4801L39.2243 68.2331V60.3161H37.4043L36.9233 62.3701H36.1562L36.2993 59.6271H43.9952L44.1252 62.3701H43.3452L42.8773 60.3161H41.0703V68.2331L42.1753 68.4801V69.0001H38.1062Z" fill="#FFE500"/>
</svg>
