<svg width="16" height="12" viewBox="0 0 16 12" fill="none" xmlns="http://www.w3.org/2000/svg">
<path d="M2.80469 3.2998L5.17871 5.67773L4.71387 6.1416L3.14648 5.0166C3.02468 6.38068 3.46015 7.74532 4.50781 8.79492C6.33457 10.6248 9.3327 10.6368 11.1719 8.80078L11.9229 9.55371C9.67509 11.7976 6.02774 11.7851 3.77441 9.52832C2.52257 8.27434 1.96684 6.63966 2.08887 5.03418L0.454102 6.20215L0 5.74707L2.45215 3.29883L2.80469 3.2998ZM4.07715 1.67578C6.32503 -0.568258 9.97325 -0.556001 12.2266 1.70117C13.4782 2.9551 14.0331 4.58898 13.9111 6.19434L15.5459 5.02637L16 5.48145L13.5479 7.92969H13.1953L10.8213 5.55176L11.2861 5.08789L12.8535 6.21191C12.9753 4.84781 12.54 3.48317 11.4922 2.43359C9.66551 0.603931 6.66826 0.592039 4.8291 2.42773L4.07715 1.67578Z" fill="#707070"/>
</svg>
